<svg width="32" height="32" viewBox="0 0 28 39" fill="none" xmlns="http://www.w3.org/2000/svg">
<path d="M14 0.130859C10.2885 0.135871 6.73039 1.63881 4.10594 4.31012C1.4815 6.98142 0.00492342 10.6031 0 14.3808C0 24.6111 13.0433 37.4243 13.5975 37.9646C13.7053 38.0712 13.8497 38.1309 14 38.1309C14.1503 38.1309 14.2947 38.0712 14.4025 37.9646C14.9567 37.4243 28 24.6111 28 14.3808C27.9951 10.6031 26.5185 6.98142 23.8941 4.31012C21.2696 1.63881 17.7115 0.135871 14 0.130859ZM14 20.9121C12.7309 20.9121 11.4903 20.529 10.4351 19.8114C9.37988 19.0937 8.55744 18.0737 8.07177 16.8802C7.58611 15.6868 7.45904 14.3736 7.70663 13.1067C7.95422 11.8397 8.56534 10.676 9.46273 9.76256C10.3601 8.84915 11.5035 8.22711 12.7482 7.9751C13.9929 7.72309 15.2831 7.85243 16.4556 8.34676C17.628 8.8411 18.6302 9.67822 19.3353 10.7523C20.0403 11.8263 20.4167 13.0891 20.4167 14.3808C20.4156 16.1127 19.7393 17.7734 18.5361 18.998C17.333 20.2226 15.7015 20.911 14 20.9121Z" fill="black"/>
</svg>
