<svg width="32" height="32" viewBox="0 0 38 38" fill="none" xmlns="http://www.w3.org/2000/svg">
<path fill-rule="evenodd" clip-rule="evenodd" d="M31.0078 27.3828C28.7113 27.3828 26.6859 26.2318 25.4551 24.4833C23.8971 26.2467 21.6456 27.3828 19.1133 27.3828C14.4288 27.3828 10.6172 23.5712 10.6172 18.8867C10.6172 14.2022 14.4288 10.3906 19.1133 10.3906C21.0332 10.3906 22.7865 11.055 24.2109 12.1332V12.0898C24.2109 11.1506 24.9709 10.3906 25.9102 10.3906C26.8494 10.3906 27.6094 11.1506 27.6094 12.0898V20.5859C27.6094 22.4594 29.1344 23.9844 31.0078 23.9844C32.8813 23.9844 34.4062 22.4594 34.4062 20.5859C34.4062 9.21352 26.8807 3.59375 19.1133 3.59375C10.6803 3.59375 3.82031 10.4537 3.82031 18.8867C3.82031 27.3197 10.6803 34.1797 19.1133 34.1797C22.5117 34.1797 25.726 33.0912 28.4093 31.0301C30.2016 29.6619 32.254 32.3629 30.4802 33.725C27.1962 36.2456 23.2667 37.5781 19.1133 37.5781C8.80684 37.5781 0.421875 29.1932 0.421875 18.8867C0.421875 8.58028 8.80684 0.195312 19.1133 0.195312C28.504 0.195312 37.8047 7.12076 37.8047 20.5859C37.8047 24.3345 34.7564 27.3828 31.0078 27.3828ZM14.0156 18.8867C14.0156 16.0758 16.3023 13.7891 19.1133 13.7891C21.9242 13.7891 24.2109 16.0758 24.2109 18.8867C24.2109 21.6977 21.9242 23.9844 19.1133 23.9844C16.3023 23.9844 14.0156 21.6977 14.0156 18.8867Z" fill="black"/>
</svg>
