<svg width="30" height="25" viewBox="0 0 36 30" fill="none" xmlns="http://www.w3.org/2000/svg">
    <path fill-rule="evenodd" clip-rule="evenodd"
          d="M2.47402 12.9148C12.1344 8.68109 18.5763 5.88995 21.7994 4.54151C31.0022 0.691248 32.9145 0.0223672 34.1609 0.000231743C34.435 -0.00458597 35.048 0.0637741 35.445 0.387863C36.0339 0.868592 36.0373 1.91208 35.9719 2.60271C35.4732 7.87354 33.3153 20.6643 32.2175 26.5677C31.7529 29.0656 30.8382 29.9032 29.9528 29.9851C28.0285 30.1633 26.5672 28.7058 24.7033 27.4769C21.7867 25.5538 20.139 24.3566 17.3079 22.4801C14.0361 20.3113 16.1571 19.1194 18.0217 17.1713C18.5097 16.6616 26.9885 8.90388 27.1526 8.2001C27.1732 8.11208 27.1923 7.78396 26.9985 7.61078C26.8047 7.4376 26.5187 7.49672 26.3124 7.54385C26.0199 7.61065 21.3606 10.7084 12.3346 16.8371C11.012 17.7506 9.81413 18.1957 8.74089 18.1724C7.55763 18.1467 5.28171 17.4995 3.58972 16.9462C1.51444 16.2677 -0.13496 15.9088 0.00872543 14.7565C0.0835452 14.1561 0.905268 13.5423 2.47402 12.9148Z"
          fill="#1F242A"/>
</svg>
