<svg width="29" height="29" viewBox="0 0 31 29" fill="none" xmlns="http://www.w3.org/2000/svg">
<path d="M7.89796 11.1812V26.3163C7.89698 26.5745 7.8513 26.8306 7.76299 27.073C7.6083 27.5146 7.32206 27.8971 6.94351 28.1681C6.56496 28.439 6.11264 28.5852 5.64856 28.5865H2.64936C2.05278 28.5865 1.48064 28.3473 1.0588 27.9216C0.636953 27.4958 0.399963 26.9184 0.399963 26.3163V11.1812C0.399963 10.5791 0.636953 10.0016 1.0588 9.57589C1.48064 9.15014 2.05278 8.91095 2.64936 8.91095H5.64856C6.23489 8.91074 6.79812 9.1416 7.21829 9.55435C7.63845 9.9671 7.88232 10.5291 7.89796 11.1207C7.89796 11.1207 7.89796 11.1585 7.89796 11.1812Z" fill="#000"/>
<path d="M7.89796 11.1812V26.3163C7.89698 26.5745 7.8513 26.8306 7.76299 27.073C7.6083 27.5146 7.32206 27.8971 6.94351 28.1681C6.56496 28.439 6.11264 28.5852 5.64856 28.5865H2.64936C2.05278 28.5865 1.48064 28.3473 1.0588 27.9216C0.636953 27.4958 0.399963 26.9184 0.399963 26.3163V11.1812C0.399963 10.5791 0.636953 10.0016 1.0588 9.57589C1.48064 9.15014 2.05278 8.91095 2.64936 8.91095H5.64856C6.23489 8.91074 6.79812 9.1416 7.21829 9.55435C7.63845 9.9671 7.88232 10.5291 7.89796 11.1207C7.89796 11.1207 7.89796 11.1585 7.89796 11.1812Z" fill="#000"/>
<path d="M28.6674 18.6201C28.467 18.8105 28.2427 18.9733 28.0001 19.1044C28.4423 19.643 28.686 20.3195 28.6899 21.019C28.6926 21.4176 28.6156 21.8128 28.4636 22.1807C28.3116 22.5487 28.0876 22.882 27.8051 23.1606C27.6097 23.3524 27.3904 23.5177 27.1528 23.6525C27.5088 24.0953 27.7336 24.6307 27.8013 25.1968C27.869 25.763 27.7769 26.3369 27.5355 26.8525C27.2942 27.3681 26.9135 27.8044 26.4372 28.1112C25.9609 28.418 25.4084 28.5828 24.8434 28.5865H12.5767C11.3689 28.5939 10.174 28.3357 9.07514 27.8298C9.11649 27.7468 9.15158 27.6608 9.18011 27.5725C9.32249 27.1692 9.39601 26.7444 9.39755 26.3163V10.992C9.39755 10.8861 9.39755 10.7801 9.39755 10.6742C10.2956 10.2443 11.0542 9.56584 11.5851 8.71782C12.1161 7.86981 12.3975 6.88707 12.3968 5.88394V2.85693C12.3968 2.25482 12.6337 1.67737 13.0556 1.25161C13.4774 0.825857 14.0496 0.58667 14.6461 0.58667C15.3213 0.586994 15.989 0.729331 16.6066 1.0046C17.2242 1.27987 17.7782 1.68203 18.2332 2.18543C18.6883 2.68883 19.0344 3.28242 19.2494 3.92834C19.4645 4.57426 19.5438 5.25832 19.4824 5.93691L19.2124 8.91095H27.2653C28.0409 8.89582 28.7936 9.17648 29.3732 9.69691C29.9528 10.2173 30.3166 10.9392 30.3919 11.7185C30.4234 12.152 30.362 12.5873 30.212 12.9947C30.0619 13.4021 29.8266 13.7721 29.5222 14.0796C29.3351 14.2757 29.1234 14.4461 28.8923 14.5866C29.3647 15.1659 29.6071 15.9017 29.5725 16.6511C29.5378 17.4006 29.2286 18.1104 28.7049 18.6428L28.6674 18.6201Z" fill="#000"/>
</svg>
