<svg width="29" height="29" viewBox="0 0 37 38" fill="none" xmlns="http://www.w3.org/2000/svg">
<path d="M29.7044 20.0589C29.1912 25.3927 24.935 29.6489 19.6011 30.1622V37.4578C24.1389 37.1973 28.3688 35.3071 31.6091 32.0668C34.8494 28.8266 36.7395 24.5966 37 20.0588H29.7044V20.0589Z" fill="#000"/>
<path d="M17.4312 30.1622C11.7402 29.6146 7.27533 24.8062 7.27533 18.9739C7.27533 16.336 8.17814 13.837 9.83707 11.8291L4.67895 6.67102C1.65445 10.064 0 14.3915 0 18.9739C0 23.9198 1.92597 28.5696 5.42321 32.0668C8.66347 35.3071 12.8934 37.1973 17.4312 37.4578V30.1622Z" fill="#000"/>
<path d="M11.3714 10.2948C13.3792 8.63591 15.8783 7.7331 18.5162 7.7331C24.3484 7.7331 29.1568 12.198 29.7044 17.889H36.9999C36.7395 13.3512 34.8492 9.12123 31.6091 5.88105C28.1118 2.38373 23.462 0.457764 18.5162 0.457764C13.9338 0.457764 9.60613 2.11221 6.21326 5.13671L11.3714 10.2948Z" fill="#000"/>
<path d="M19.9883 17.7732C19.0069 17.4263 17.9214 17.0072 17.3126 16.5298C17.1213 16.3798 17.0386 16.0362 17.1066 15.6749C17.1406 15.4947 17.2993 14.8923 17.9155 14.7066C18.9273 14.402 19.6211 14.8061 19.8724 14.994C20.3524 15.3526 21.0322 15.2545 21.3909 14.7746C21.7498 14.2947 21.6515 13.6148 21.1716 13.256C20.944 13.0857 20.3736 12.7125 19.5558 12.5312V12.0897C19.5558 11.4905 19.0701 11.0047 18.4709 11.0047C17.8717 11.0047 17.386 11.4905 17.386 12.0897V12.602C17.3539 12.611 17.3221 12.6192 17.2897 12.629C16.1014 12.9869 15.2142 14.0001 14.9743 15.2731C14.7535 16.4448 15.1363 17.5805 15.9734 18.2371C16.6632 18.7781 17.6169 19.2363 19.2651 19.819C20.3625 20.2069 20.3387 21.0951 20.2775 21.4589C20.1535 22.1966 19.533 22.9938 18.4636 23.001C17.4155 23.008 17.0881 22.9561 16.2824 22.429C15.781 22.101 15.1086 22.2415 14.7806 22.743C14.4526 23.2444 14.5932 23.9168 15.0946 24.2448C15.9635 24.8132 16.6047 25.0438 17.3859 25.128V25.6238C17.3859 26.223 17.8716 26.7088 18.4708 26.7088C19.0701 26.7088 19.5557 26.223 19.5557 25.6238V25.0237C20.1534 24.8592 20.6981 24.5586 21.1636 24.1308C21.8233 23.5247 22.2685 22.7036 22.4173 21.8187C22.72 20.0195 21.7438 18.3938 19.9883 17.7732Z" fill="#000"/>
</svg>
