<svg width="29" height="29" viewBox="0 0 33 27" fill="none" xmlns="http://www.w3.org/2000/svg">
<path d="M24.1506 18.5311C23.9032 16.853 23.0615 15.319 21.7782 14.2074C20.4948 13.0958 18.8549 12.4803 17.1558 12.4724H15.5723C13.8732 12.4803 12.2333 13.0958 10.9499 14.2074C9.66657 15.319 8.82486 16.853 8.57747 18.5311L7.81846 23.8292C7.79422 24.0004 7.81024 24.175 7.86526 24.339C7.92028 24.503 8.01279 24.652 8.13546 24.7741C8.43311 25.0712 10.2592 26.5867 16.3655 26.5867C22.4718 26.5867 24.2935 25.0772 24.5956 24.7741C24.7183 24.652 24.8108 24.503 24.8658 24.339C24.9208 24.175 24.9368 24.0004 24.9126 23.8292L24.1506 18.5311Z" fill="black"/>
<path d="M9.75469 13.2895C8.31633 14.6132 7.38047 16.3925 7.10559 18.3261L6.55493 22.1295C2.13481 22.0998 0.795378 20.4952 0.572139 20.1684C0.485847 20.0496 0.424267 19.9148 0.391037 19.7719C0.357807 19.629 0.3536 19.4809 0.378666 19.3364L0.706082 17.4941C0.87667 16.5313 1.27731 15.6237 1.87403 14.8484C2.47075 14.073 3.24595 13.4528 4.13391 13.0402C5.02187 12.6276 5.99639 12.4348 6.97486 12.4782C7.95334 12.5216 8.90689 12.7999 9.75469 13.2895Z" fill="black"/>
<path d="M32.3464 19.3364C32.3715 19.4809 32.3673 19.629 32.3341 19.7719C32.3008 19.9148 32.2393 20.0496 32.153 20.1684C31.9297 20.4952 30.5903 22.0998 26.1702 22.1295L25.6195 18.3261C25.3446 16.3925 24.4088 14.6132 22.9704 13.2895C23.8182 12.7999 24.7718 12.5216 25.7502 12.4782C26.7287 12.4348 27.7032 12.6276 28.5912 13.0402C29.4791 13.4528 30.2544 14.073 30.8511 14.8484C31.4478 15.6237 31.8484 16.5313 32.019 17.4941L32.3464 19.3364Z" fill="black"/>
<path d="M10.0077 10.021C9.63306 10.5514 9.13573 10.9836 8.55794 11.2811C7.98014 11.5785 7.33897 11.7324 6.68888 11.7295C6.04038 11.7295 5.40116 11.5757 4.82391 11.2807C4.24665 10.9857 3.74788 10.558 3.3687 10.0328C2.98952 9.50758 2.74078 8.89996 2.64298 8.25997C2.54518 7.61999 2.60112 6.96596 2.80619 6.3518C3.01127 5.73763 3.3596 5.1809 3.82249 4.72749C4.28537 4.27408 4.84956 3.93697 5.46856 3.74394C6.08756 3.55091 6.74365 3.50749 7.38276 3.61725C8.02187 3.72701 8.6257 3.98681 9.1445 4.37524C8.99528 4.95779 8.92028 5.55681 8.92126 6.1581C8.9224 7.52072 9.29819 8.85688 10.0077 10.021Z" fill="black"/>
<path d="M30.1289 7.64381C30.1293 8.18047 30.0237 8.71193 29.8182 9.20781C29.6126 9.70369 29.3112 10.1542 28.9311 10.5337C28.551 10.9132 28.0996 11.2141 27.6029 11.4193C27.1062 11.6245 26.5738 11.7299 26.0362 11.7295C25.3861 11.7324 24.745 11.5785 24.1672 11.2811C23.5894 10.9836 23.092 10.5514 22.7174 10.021C23.4269 8.85688 23.8027 7.52072 23.8038 6.1581C23.8048 5.55681 23.7298 4.95779 23.5806 4.37524C24.1887 3.91998 24.9117 3.64275 25.6687 3.57461C26.4257 3.50647 27.1867 3.65011 27.8665 3.98944C28.5464 4.32877 29.1181 4.85038 29.5177 5.49582C29.9173 6.14127 30.1289 6.88505 30.1289 7.64381Z" fill="black"/>
<path d="M16.3625 11.7295C19.4448 11.7295 21.9435 9.23511 21.9435 6.1581C21.9435 3.08108 19.4448 0.58667 16.3625 0.58667C13.2803 0.58667 10.7816 3.08108 10.7816 6.1581C10.7816 9.23511 13.2803 11.7295 16.3625 11.7295Z" fill="black"/>
</svg>
