<svg width="20" height="20" fill="none" xmlns="http://www.w3.org/2000/svg"><path d="M17.107 12.403l.852.288.474-1.402-1.463.225.137.89zm-9.51-9.51l.89.137.224-1.463-1.403.474.289.852zm9.373 8.62c-.37.057-.75.087-1.137.087v1.8c.48 0 .95-.037 1.41-.107l-.273-1.78zm-1.137.087A7.433 7.433 0 018.4 4.167H6.6c0 5.1 4.134 9.233 9.233 9.233v-1.8zM8.4 4.167c0-.387.03-.767.086-1.137l-1.779-.273c-.07.46-.107.93-.107 1.41h1.8zM3.4 10a6.603 6.603 0 014.485-6.254L7.308 2.04A8.403 8.403 0 001.6 10h1.8zm6.6 6.6A6.6 6.6 0 013.4 10H1.6a8.4 8.4 0 008.4 8.4v-1.8zm6.254-4.485A6.603 6.603 0 0110 16.6v1.8c3.7 0 6.838-2.39 7.96-5.708l-1.706-.577z" fill="#000"/></svg>