<svg width="20" height="20" fill="none" xmlns="http://www.w3.org/2000/svg"><path fill-rule="evenodd" clip-rule="evenodd" d="M10.9 1.667v2.5H9.1v-2.5h1.8zm0 14.166v2.5H9.1v-2.5h1.8zM4.744 3.471l1.768 1.768-1.273 1.273L3.47 4.744 4.744 3.47zM14.76 13.488l1.768 1.768-1.273 1.273-1.768-1.768 1.273-1.273zM4.167 9.1h-2.5v1.8h2.5V9.1zm14.166 0h-2.5v1.8h2.5V9.1zM3.471 15.256l1.768-1.768 1.273 1.273-1.768 1.768-1.273-1.273zM13.488 5.24l1.768-1.768 1.273 1.273-1.768 1.768-1.273-1.273zM6.8 10a3.2 3.2 0 106.4 0 3.2 3.2 0 00-6.4 0zM5 10a5 5 0 1010 0 5 5 0 00-10 0z" fill="#fff"/></svg>